<svg width="23" height="16" viewBox="0 0 23 16" fill="none" xmlns="http://www.w3.org/2000/svg">
<path d="M22.4906 1.78697C21.6542 2.09002 20.7631 2.2909 19.8339 2.38843C20.7898 1.91702 21.5193 1.17622 21.8623 0.283314C20.9711 0.722219 19.9871 1.03224 18.9385 1.20525C18.0923 0.460966 16.8862 0 15.5705 0C13.0179 0 10.9628 1.7115 10.9628 3.80965C10.9628 4.11154 10.9937 4.40182 11.0696 4.67817C7.23636 4.52374 3.84449 3.00615 1.56591 0.694352C1.16811 1.26446 0.934766 1.91702 0.934766 2.6195C0.934766 3.93853 1.75708 5.10778 2.98282 5.78472C2.24203 5.77311 1.51531 5.59546 0.899625 5.31562C0.899625 5.32724 0.899625 5.34233 0.899625 5.35742C0.899625 7.20826 2.49786 8.74558 4.59371 9.09973C4.2184 9.18449 3.80935 9.22513 3.38484 9.22513C3.08965 9.22513 2.79165 9.21119 2.51192 9.16011C3.10933 10.6684 4.80456 11.7773 6.82028 11.8133C5.25156 12.8269 3.25973 13.4377 1.10345 13.4377C0.725323 13.4377 0.362661 13.4238 0 13.3854C2.04243 14.4734 4.46298 15.0946 7.0733 15.0946C15.5579 15.0946 20.1966 9.28899 20.1966 4.25668C20.1966 4.08832 20.1895 3.92576 20.1797 3.76436C21.0948 3.22792 21.8637 2.55796 22.4906 1.78697Z" fill="#080809"/>
</svg>
