<svg width="24" height="24" viewBox="0 0 24 24" fill="none" xmlns="http://www.w3.org/2000/svg">
<g filter="url(#filter0_d_19_217)">
<path d="M4.26667 15.4667H5.86667V6.66667C5.86667 6.5194 5.98607 6.4 6.13333 6.4H9.86667V0.266667C9.86667 0.1194 9.98607 0 10.1333 0H17.0667C17.2139 0 17.3333 0.1194 17.3333 0.266667V15.4667H19.7333C19.8806 15.4667 20 15.5861 20 15.7333C20 15.8806 19.8806 16 19.7333 16H4.26667C4.1194 16 4 15.8806 4 15.7333C4 15.5861 4.1194 15.4667 4.26667 15.4667ZM14.4 15.4667H15.4667V13.0667C15.4667 12.9194 15.3473 12.8 15.2 12.8H14.6667C14.5194 12.8 14.4 12.9194 14.4 13.0667V15.4667ZM13.3333 6.66667V15.4667H13.8667V13.0667C13.8667 12.6248 14.2248 12.2667 14.6667 12.2667H15.2C15.6418 12.2667 16 12.6248 16 13.0667V15.4667H16.8V0.533333H10.4V6.4H13.0667C13.2139 6.4 13.3333 6.5194 13.3333 6.66667ZM6.4 15.4667H12.8V6.93333H6.4V15.4667Z" fill="#84829A"/>
<path d="M11.4666 3.7334H13.0666C13.2139 3.7334 13.3333 3.8528 13.3333 4.00007V5.60007C13.3333 5.74733 13.2139 5.86673 13.0666 5.86673H11.4666C11.3194 5.86673 11.2 5.74733 11.2 5.60007V4.00007C11.2 3.8528 11.3194 3.7334 11.4666 3.7334ZM11.7333 5.3334H12.8V4.26673H11.7333V5.3334Z" fill="#84829A"/>
<path d="M11.4666 1.06641H13.0666C13.2139 1.06641 13.3333 1.18581 13.3333 1.33307V2.93307C13.3333 3.08034 13.2139 3.19974 13.0666 3.19974H11.4666C11.3194 3.19974 11.2 3.08034 11.2 2.93307V1.33307C11.2 1.18581 11.3194 1.06641 11.4666 1.06641ZM11.7333 2.66641H12.8V1.59974H11.7333V2.66641Z" fill="#84829A"/>
<path d="M14.1333 3.7334H15.7333C15.8806 3.7334 16 3.8528 16 4.00007V5.60007C16 5.74733 15.8806 5.86673 15.7333 5.86673H14.1333C13.9861 5.86673 13.8667 5.74733 13.8667 5.60007V4.00007C13.8667 3.8528 13.9861 3.7334 14.1333 3.7334ZM14.4 5.3334H15.4667V4.26673H14.4V5.3334Z" fill="#84829A"/>
<path d="M14.1333 1.06641H15.7333C15.8806 1.06641 16 1.18581 16 1.33307V2.93307C16 3.08034 15.8806 3.19974 15.7333 3.19974H14.1333C13.9861 3.19974 13.8667 3.08034 13.8667 2.93307V1.33307C13.8667 1.18581 13.9861 1.06641 14.1333 1.06641ZM14.4 2.66641H15.4667V1.59974H14.4V2.66641Z" fill="#84829A"/>
<path d="M14.1333 6.3999H15.7333C15.8806 6.3999 16 6.5193 16 6.66657V8.26657C16 8.41384 15.8806 8.53324 15.7333 8.53324H14.1333C13.9861 8.53324 13.8667 8.41384 13.8667 8.26657V6.66657C13.8667 6.5193 13.9861 6.3999 14.1333 6.3999ZM14.4 7.9999H15.4667V6.93324H14.4V7.9999Z" fill="#84829A"/>
<path d="M14.1333 9.06641H15.7333C15.8806 9.06641 16 9.18581 16 9.33307V10.9331C16 11.0803 15.8806 11.1997 15.7333 11.1997H14.1333C13.9861 11.1997 13.8667 11.0803 13.8667 10.9331V9.33307C13.8667 9.18581 13.9861 9.06641 14.1333 9.06641ZM14.4 10.6664H15.4667V9.59974H14.4V10.6664Z" fill="#84829A"/>
<path d="M9.06665 12.2666H7.46665C7.31938 12.2666 7.19998 12.1472 7.19998 12V10.4C7.19998 10.2527 7.31938 10.1333 7.46665 10.1333H9.06665C9.21391 10.1333 9.33331 10.2527 9.33331 10.4V12C9.33331 12.1472 9.21391 12.2666 9.06665 12.2666ZM8.79998 10.6666H7.73331V11.7333H8.79998V10.6666Z" fill="#84829A"/>
<path d="M9.06665 9.60013H7.46665C7.31938 9.60013 7.19998 9.48073 7.19998 9.33346V7.73346C7.19998 7.5862 7.31938 7.4668 7.46665 7.4668H9.06665C9.21391 7.4668 9.33331 7.5862 9.33331 7.73346V9.33346C9.33331 9.48073 9.21391 9.60013 9.06665 9.60013ZM8.79998 8.00013H7.73331V9.0668H8.79998V8.00013Z" fill="#84829A"/>
<path d="M9.06665 14.9331H7.46665C7.31938 14.9331 7.19998 14.8137 7.19998 14.6665V13.0665C7.19998 12.9192 7.31938 12.7998 7.46665 12.7998H9.06665C9.21391 12.7998 9.33331 12.9192 9.33331 13.0665V14.6665C9.33331 14.8137 9.21391 14.9331 9.06665 14.9331ZM8.79998 13.3331H7.73331V14.3998H8.79998V13.3331Z" fill="#84829A"/>
<path d="M11.7333 12.2666H10.1333C9.98607 12.2666 9.86667 12.1472 9.86667 12V10.4C9.86667 10.2527 9.98607 10.1333 10.1333 10.1333H11.7333C11.8806 10.1333 12 10.2527 12 10.4V12C12 12.1472 11.8806 12.2666 11.7333 12.2666ZM11.4667 10.6666H10.4V11.7333H11.4667V10.6666Z" fill="#84829A"/>
<path d="M11.7333 9.60013H10.1333C9.98607 9.60013 9.86667 9.48073 9.86667 9.33346V7.73346C9.86667 7.5862 9.98607 7.4668 10.1333 7.4668H11.7333C11.8806 7.4668 12 7.5862 12 7.73346V9.33346C12 9.48073 11.8806 9.60013 11.7333 9.60013ZM11.4667 8.00013H10.4V9.0668H11.4667V8.00013Z" fill="#84829A"/>
<path d="M11.7333 14.9331H10.1333C9.98607 14.9331 9.86667 14.8137 9.86667 14.6665V13.0665C9.86667 12.9192 9.98607 12.7998 10.1333 12.7998H11.7333C11.8806 12.7998 12 12.9192 12 13.0665V14.6665C12 14.8137 11.8806 14.9331 11.7333 14.9331ZM11.4667 13.3331H10.4V14.3998H11.4667V13.3331Z" fill="#84829A"/>
</g>
<defs>
<filter id="filter0_d_19_217" x="0" y="0" width="24" height="24" filterUnits="userSpaceOnUse" color-interpolation-filters="sRGB">
<feFlood flood-opacity="0" result="BackgroundImageFix"/>
<feColorMatrix in="SourceAlpha" type="matrix" values="0 0 0 0 0 0 0 0 0 0 0 0 0 0 0 0 0 0 127 0" result="hardAlpha"/>
<feOffset dy="4"/>
<feGaussianBlur stdDeviation="2"/>
<feComposite in2="hardAlpha" operator="out"/>
<feColorMatrix type="matrix" values="0 0 0 0 0 0 0 0 0 0 0 0 0 0 0 0 0 0 0.25 0"/>
<feBlend mode="normal" in2="BackgroundImageFix" result="effect1_dropShadow_19_217"/>
<feBlend mode="normal" in="SourceGraphic" in2="effect1_dropShadow_19_217" result="shape"/>
</filter>
</defs>
</svg>
