<svg width="36" height="36" viewBox="0 0 36 36" fill="none" xmlns="http://www.w3.org/2000/svg">
<path d="M27.1899 34C26.748 33.9996 26.3162 33.8673 25.9499 33.62L18.4899 28.62C18.4532 28.5946 18.4096 28.581 18.3649 28.581C18.3203 28.581 18.2767 28.5946 18.2399 28.62L10.7799 33.62C10.4053 33.8701 9.96347 34.0004 9.51308 33.9935C9.0627 33.9866 8.62507 33.8428 8.25831 33.5813C7.89155 33.3198 7.61302 32.9529 7.4597 32.5294C7.30638 32.1058 7.28553 31.6457 7.39991 31.21L9.84991 22.57C9.86149 22.5266 9.86009 22.4807 9.84587 22.438C9.83165 22.3954 9.80524 22.3578 9.76991 22.33L2.70991 16.78C2.33825 16.5031 2.06256 16.1169 1.92149 15.6754C1.78043 15.2339 1.78107 14.7594 1.92332 14.3183C2.06557 13.8772 2.3423 13.4917 2.7147 13.2158C3.08711 12.94 3.53652 12.7876 3.99991 12.78L12.9999 12.44C13.0442 12.4369 13.0866 12.4212 13.1221 12.3945C13.1576 12.3679 13.1846 12.3316 13.1999 12.29L16.2999 3.86C16.4562 3.43263 16.74 3.06361 17.1129 2.80289C17.4858 2.54217 17.9299 2.40234 18.3849 2.40234C18.8399 2.40234 19.284 2.54217 19.6569 2.80289C20.0298 3.06361 20.3137 3.43263 20.4699 3.86L23.5699 12.29C23.5852 12.3316 23.6123 12.3679 23.6478 12.3945C23.6832 12.4212 23.7257 12.4369 23.7699 12.44L32.7699 12.78C33.2333 12.7876 33.6827 12.94 34.0551 13.2158C34.4275 13.4917 34.7043 13.8772 34.8465 14.3183C34.9888 14.7594 34.9894 15.2339 34.8483 15.6754C34.7073 16.1169 34.4316 16.5031 34.0599 16.78L26.9999 22.33C26.9635 22.3569 26.9363 22.3944 26.922 22.4373C26.9076 22.4803 26.9069 22.5266 26.9199 22.57L29.3699 31.21C29.4559 31.5414 29.4644 31.8882 29.3948 32.2234C29.3252 32.5586 29.1794 32.8733 28.9686 33.1431C28.7578 33.4129 28.4877 33.6305 28.1792 33.7791C27.8708 33.9277 27.5323 34.0033 27.1899 34V34ZM18.3699 26.58C18.8127 26.5935 19.2413 26.7399 19.5999 27L27.0599 32C27.0977 32.0287 27.1438 32.0445 27.1913 32.0448C27.2388 32.0452 27.2851 32.0302 27.3234 32.0021C27.3616 31.974 27.3897 31.9342 27.4035 31.8888C27.4173 31.8433 27.4161 31.7946 27.3999 31.75L24.9499 23.11C24.8294 22.6862 24.8382 22.236 24.9754 21.8172C25.1127 21.3985 25.3719 21.0303 25.7199 20.76L32.7799 15.21C32.8184 15.1829 32.8472 15.1443 32.8621 15.0996C32.877 15.055 32.8772 15.0067 32.8627 14.962C32.8481 14.9172 32.8196 14.8783 32.7813 14.8509C32.743 14.8236 32.697 14.8092 32.6499 14.81L23.6499 14.47C23.2092 14.4528 22.7836 14.3048 22.4274 14.0447C22.0712 13.7847 21.8006 13.4245 21.6499 13.01L18.5499 4.58C18.5359 4.53524 18.508 4.49611 18.4702 4.46833C18.4325 4.44055 18.3868 4.42557 18.3399 4.42557C18.293 4.42557 18.2474 4.44055 18.2096 4.46833C18.1718 4.49611 18.1439 4.53524 18.1299 4.58L15.0599 13C14.9093 13.4145 14.6386 13.7747 14.2824 14.0347C13.9262 14.2948 13.5006 14.4428 13.0599 14.46L4.05991 14.8C4.01285 14.7992 3.96679 14.8136 3.92849 14.8409C3.8902 14.8683 3.86168 14.9072 3.84713 14.952C3.83259 14.9967 3.83278 15.045 3.84768 15.0896C3.86257 15.1343 3.8914 15.1729 3.92991 15.2L10.9999 20.76C11.3469 21.0312 11.6053 21.3994 11.7424 21.8179C11.8795 22.2363 11.8891 22.6861 11.7699 23.11L9.32991 31.75C9.31535 31.7933 9.31528 31.8401 9.32971 31.8834C9.34415 31.9267 9.3723 31.9641 9.40991 31.99C9.44614 32.021 9.49224 32.038 9.53991 32.038C9.58758 32.038 9.63368 32.021 9.66991 31.99L17.1299 26.99C17.4945 26.7482 17.9224 26.6194 18.3599 26.62L18.3699 26.58Z" fill="#FF7A00"/>
</svg>
